Patient4_TMGait_0pt5_01_right_18_GRF.mot
version=1
nRows=51
nColumns=19
inDegrees=no
endheader
time	F1x	F1y	F1z	M1x	M1y	M1z	F2x	F2y	F2z	M2x	M2y	M2z	EC1x	EC1y	EC1z	EC2x	EC2y	EC2z
23.38	18.7023	793.9266	61.9541	-287.5493	-49.3639	697.1502	-2.7098	-4.8874	0.74982	-0.62821	0.97415	-12.0109	-0.0592	0.0182	-0.0073	-0.0462	0.0165	0.9585
23.3936	14.5643	787.237	61.7114	-285.3731	-48.7725	686.8178	-1.9701	-2.6786	0.44957	-0.15264	0.73746	-7.5353	-0.0592	0.0182	-0.0073	-0.0462	0.0165	0.9585
23.4073	11.2221	780.8979	61.3875	-283.0943	-48.0014	676.8759	-1.3318	-0.78222	0.20977	0.25914	0.52732	-3.7134	-0.0592	0.0182	-0.0073	-0.0462	0.0165	0.9585
23.4209	8.8666	775.332	60.9391	-280.8599	-47.0436	667.8873	-0.8387	0.69361	0.036188	0.58298	0.36712	-0.76127	-0.0592	0.0182	-0.0073	-0.0462	0.0165	0.9585
23.4346	7.4752	770.7247	60.3598	-278.7715	-45.9184	660.047	-0.49959	1.7478	-0.077432	0.81746	0.26247	1.3346	-0.0592	0.0182	-0.0073	-0.0462	0.0165	0.9585
23.4482	6.9549	767.0957	59.6311	-276.8867	-44.614	653.3103	-0.29273	2.4271	-0.14379	0.97068	0.20702	2.6819	-0.0592	0.0182	-0.0073	-0.0462	0.0165	0.9585
23.4619	7.2024	764.3333	58.8056	-275.2112	-43.1649	647.4807	-0.19829	2.7849	-0.17833	1.0494	0.19441	3.4177	-0.0592	0.0182	-0.0073	-0.0462	0.0165	0.9585
23.4755	8.126	762.2554	57.9442	-273.7129	-41.6024	642.2999	-0.19103	2.8618	-0.18997	1.0542	0.21065	3.665	-0.0592	0.0182	-0.0073	-0.0462	0.0165	0.9585
23.4891	9.6325	760.6571	57.1414	-272.3372	-39.9921	637.5158	-0.24664	2.6689	-0.1896	0.97531	0.2468	3.5039	-0.0592	0.0182	-0.0073	-0.0462	0.0165	0.9585
23.5028	11.6416	759.3452	56.4715	-271.0259	-38.3851	632.9103	-0.34647	2.1797	-0.17997	0.79066	0.29182	2.9654	-0.0592	0.0182	-0.0073	-0.0462	0.0165	0.9585
23.5164	14.0699	758.1562	55.9995	-269.7285	-36.8363	628.3225	-0.46095	1.3412	-0.16694	0.47011	0.33821	2.0391	-0.0592	0.0182	-0.0073	-0.0462	0.0165	0.9585
23.5301	16.8368	756.9441	55.7528	-268.4031	-35.3782	623.6233	-0.56195	0.11003	-0.14858	-0.011154	0.37229	0.71156	-0.0592	0.0182	-0.0073	-0.0462	0.0165	0.9585
23.5437	19.8848	755.6094	55.7329	-267.0286	-34.0269	618.736	-0.60823	-1.5389	-0.12976	-0.66513	0.38507	-1.0307	-0.0592	0.0182	-0.0073	-0.0462	0.0165	0.9585
23.5574	23.1613	754.0945	55.9126	-265.6007	-32.7753	613.6252	-0.54882	-3.5613	-0.10414	-1.4724	0.35229	-3.14	-0.0592	0.0182	-0.0073	-0.0462	0.0165	0.9585
23.571	26.6314	752.3257	56.2577	-264.1073	-31.6065	608.2492	-0.32146	-5.7742	-0.071153	-2.3582	0.24726	-5.4256	-0.0592	0.0182	-0.0073	-0.0462	0.0165	0.9585
23.5846	30.2389	750.213	56.7195	-262.525	-30.4951	602.5679	0.15213	-7.7832	-0.017646	-3.1634	0.022512	-7.4972	-0.0592	0.0182	-0.0073	-0.0462	0.0165	0.9585
23.5983	33.9106	747.6934	57.2567	-260.8381	-29.4327	596.5622	0.94434	-8.8934	0.065198	-3.6107	-0.36576	-8.6657	-0.0592	0.0182	-0.0073	-0.0462	0.0165	0.9585
23.6119	37.5642	744.7564	57.8189	-259.0519	-28.4056	590.2575	2.1235	-8.0498	0.18572	-3.2769	-0.95104	-7.8728	-0.0592	0.0182	-0.0073	-0.0462	0.0165	0.9585
23.6256	41.1175	741.4102	58.3651	-257.1806	-27.4064	583.6915	3.7122	-3.7901	0.34522	-1.577	-1.7321	-3.6373	-0.0592	0.0182	-0.0073	-0.0462	0.0165	0.9585
23.6392	44.51	737.6106	58.8372	-255.2223	-26.4076	576.8486	5.6462	5.7085	0.54285	2.2178	-2.6634	5.8849	-0.0592	0.0182	-0.0073	-0.0462	0.0165	0.9585
23.6529	47.684	733.1553	59.1671	-253.1203	-25.3761	569.6099	7.7243	22.4536	0.7598	8.9097	-3.6244	22.7338	-0.0592	0.0182	-0.0073	-0.0462	0.0165	0.9585
23.6665	50.592	727.5401	59.2479	-250.7126	-24.2517	561.6345	9.5228	48.2928	0.95355	19.2338	-4.3908	48.7925	-0.0592	0.0182	-0.0073	-0.0462	0.0165	0.9585
23.6801	53.1702	719.8493	58.9425	-247.6908	-22.9619	552.2888	10.3417	84.2778	1.0381	33.6068	-4.5953	85.1234	-0.0592	0.0182	-0.0073	-0.0462	0.0165	0.9585
23.6938	55.3246	708.7059	58.0839	-243.5832	-21.4254	540.6035	9.1601	129.7442	0.88729	51.7587	-3.7176	131.0564	-0.0592	0.0182	-0.0073	-0.0462	0.0165	0.9585
23.7074	56.9034	692.384	56.499	-237.7966	-19.5785	525.3492	5.0009	181.3638	0.35418	72.3565	-1.2606	183.2329	-0.0592	0.0182	-0.0073	-0.0462	0.0165	0.9585
23.7211	57.7059	669.2043	54.0444	-229.7504	-17.3994	505.3299	-1.7242	233.4235	-0.85658	93.0996	2.8778	235.8464	-0.0592	0.0182	-0.0073	-0.0462	0.0165	0.9585
23.7347	57.5206	638.0245	50.6611	-219.0417	-14.9363	479.7445	-9.5018	280.3166	-3.0892	111.7305	8.3887	283.0973	-0.0592	0.0182	-0.0073	-0.0462	0.0165	0.9585
23.7484	56.1739	598.5254	46.4343	-205.538	-12.3262	448.3999	-17.0249	319.8186	-6.1107	127.3468	14.5042	322.5578	-0.0592	0.0182	-0.0073	-0.0462	0.0165	0.9585
23.762	53.6068	551.1708	41.554	-189.3743	-9.734	411.6641	-23.591	353.1014	-9.6755	140.4013	20.6896	355.3426	-0.0592	0.0182	-0.0073	-0.0462	0.0165	0.9585
23.7756	49.8491	497.1199	36.2474	-170.9255	-7.3113	370.3989	-28.9242	382.8788	-13.3773	151.9824	26.442	384.1648	-0.0592	0.0182	-0.0073	-0.0462	0.0165	0.9585
23.7893	44.9881	438.1212	30.7237	-150.7729	-5.1679	325.8788	-33.0607	412.1133	-17.0524	163.2706	31.6232	412.0072	-0.0592	0.0182	-0.0073	-0.0462	0.0165	0.9585
23.8029	39.1371	376.3528	25.2066	-129.6487	-3.411	279.6682	-36.1137	443.2915	-20.6044	175.2555	36.2023	441.3324	-0.0592	0.0182	-0.0073	-0.0462	0.0165	0.9585
23.8166	32.443	314.2593	19.9299	-108.3797	-2.1424	233.5139	-38.2605	478.1174	-24.1774	188.605	40.4009	473.8184	-0.0592	0.0182	-0.0073	-0.0462	0.0165	0.9585
23.8302	25.156	254.3528	15.1239	-87.823	-1.4264	189.1923	-39.7521	517.2404	-28.0037	203.5599	44.545	510.1258	-0.0592	0.0182	-0.0073	-0.0462	0.0165	0.9585
23.8439	17.6872	198.9817	10.9781	-68.7883	-1.2403	148.3403	-40.8522	560.0654	-32.2931	219.8822	48.9399	549.6834	-0.0592	0.0182	-0.0073	-0.0462	0.0165	0.9585
23.8575	10.5678	150.0553	7.6067	-51.9409	-1.4637	112.2736	-41.8556	605.0344	-37.1046	236.9691	53.752	591.0003	-0.0592	0.0182	-0.0073	-0.0462	0.0165	0.9585
23.8711	4.3312	108.7257	5.0367	-37.6894	-1.9211	81.7637	-42.9285	650.0692	-42.2206	254.0399	58.8366	632.0547	-0.0592	0.0182	-0.0073	-0.0462	0.0165	0.9585
23.8848	-0.64579	75.2618	3.19	-26.1375	-2.4218	56.9805	-44.0614	692.9726	-47.2375	270.2777	63.807	670.7089	-0.0592	0.0182	-0.0073	-0.0462	0.0165	0.9585
23.8984	-4.1654	49.2236	1.939	-17.1403	-2.8089	37.6056	-45.1065	731.6235	-51.6553	284.896	68.1359	704.9138	-0.0592	0.0182	-0.0073	-0.0462	0.0165	0.9585
23.9121	-6.1734	29.7665	1.1222	-10.4103	-2.9559	23.0485	-45.8685	764.0755	-55.169	297.1604	71.4638	732.824	-0.0592	0.0182	-0.0073	-0.0462	0.0165	0.9585
23.9257	-6.7515	15.8933	0.58963	-5.6055	-2.7915	12.6077	-46.1936	788.7884	-57.6356	306.4755	73.5952	753.0307	-0.0592	0.0182	-0.0073	-0.0462	0.0165	0.9585
23.9394	-6.1412	6.583	0.24163	-2.3764	-2.3386	5.545	-45.958	804.8297	-59.0956	312.4661	74.5223	764.7267	-0.0592	0.0182	-0.0073	-0.0462	0.0165	0.9585
23.953	-4.8698	0.93507	0.017543	-0.41276	-1.7365	1.2222	-45.0741	812.0452	-59.6528	315.0542	74.3129	767.8635	-0.0592	0.0182	-0.0073	-0.0462	0.0165	0.9585
23.9666	-3.4199	-1.947	-0.10615	0.59509	-1.1394	-1.0063	-43.4952	811.1129	-59.474	314.4876	73.1137	763.183	-0.0592	0.0182	-0.0073	-0.0462	0.0165	0.9585
23.9803	-2.0847	-2.9264	-0.16629	0.94559	-0.62121	-1.7744	-41.2242	803.5418	-58.7269	311.3402	71.0972	752.1859	-0.0592	0.0182	-0.0073	-0.0462	0.0165	0.9585
23.9939	-0.9987	-2.7457	-0.17767	0.89437	-0.22156	-1.6515	-38.3495	791.4438	-57.6085	306.4186	68.4957	736.9126	-0.0592	0.0182	-0.0073	-0.0462	0.0165	0.9585
24.0076	-0.19699	-1.9636	-0.16585	0.63409	0.063639	-1.0625	-35.0451	777.1524	-56.3171	300.6194	65.5752	719.5849	-0.0592	0.0182	-0.0073	-0.0462	0.0165	0.9585
24.0212	0.3371	-0.95843	-0.13573	0.29659	0.24144	-0.28572	-31.5341	762.9164	-55.0302	294.8108	62.5986	702.3315	-0.0592	0.0182	-0.0073	-0.0462	0.0165	0.9585
24.0349	0.65504	0.031954	-0.10401	-0.038036	0.33991	0.50151	-28.0358	750.6788	-53.8839	289.7437	59.7836	686.9658	-0.0592	0.0182	-0.0073	-0.0462	0.0165	0.9585
24.0485	0.80526	0.88776	-0.070546	-0.33034	0.37231	1.2132	-24.7244	741.8533	-52.9737	285.9684	57.285	674.7677	-0.0592	0.0182	-0.0073	-0.0462	0.0165	0.9585
24.0621	0.85022	1.5658	-0.043277	-0.56665	0.36574	1.796	-21.7162	737.216	-52.3529	283.792	55.1912	666.4044	-0.0592	0.0182	-0.0073	-0.0462	0.0165	0.9585
